<svg width="181" height="29" viewBox="0 0 181 29" fill="none" xmlns="http://www.w3.org/2000/svg">
<path d="M0 0H161.654L180.5 14.4188L161.654 28.0366H0V0Z" fill="#170028"/>
<path d="M14.6785 8.86651H19.1202V10.2183H16.2096V13.0186H18.5547V14.398H16.2096V17.6396H19.5754V19.0052H14.6785V8.86651ZM22.6349 12.4392L22.6763 13.5427V19.0052H21.1314V8.85271H21.3245L27.2836 15.5015L27.2284 14.3428V8.86651H28.7733V19.0052H28.5664L22.6349 12.4392ZM41.6582 18.3155C41.4835 18.4719 41.1662 18.6328 40.7064 18.7983C40.2558 18.9547 39.7822 19.0512 39.2856 19.088C39.304 19.2075 39.3959 19.3731 39.5615 19.5846C39.7086 19.7777 39.8236 19.9616 39.9063 20.1364C39.9891 20.3203 40.0305 20.541 40.0305 20.7985C40.0305 21.433 39.842 21.8974 39.4649 22.1917C39.0971 22.4952 38.5913 22.6469 37.9476 22.6469C37.7268 22.6469 37.4786 22.6239 37.2027 22.5779L37.3268 21.2951C37.4556 21.3135 37.5843 21.3227 37.7131 21.3227C38.366 21.3227 38.6924 21.1157 38.6924 20.7019C38.6924 20.6192 38.674 20.5318 38.6373 20.4398C38.6005 20.3571 38.5637 20.2881 38.5269 20.2329C38.4993 20.1869 38.4809 20.1547 38.4717 20.1364C38.389 20.0168 38.32 19.9019 38.2648 19.7915C38.2188 19.6811 38.1958 19.557 38.1958 19.4191C38.1958 19.2351 38.2188 19.1202 38.2648 19.0742C37.3452 18.973 36.5497 18.6834 35.8784 18.2052C35.2071 17.7178 34.6967 17.1016 34.3473 16.3567C33.9978 15.6027 33.8231 14.7888 33.8231 13.9152C33.8231 12.9128 34.0392 12.0162 34.4714 11.2253C34.9128 10.4344 35.529 9.81831 36.3198 9.37689C37.1107 8.92628 38.0073 8.70098 39.0097 8.70098C39.4603 8.70098 39.8787 8.75155 40.265 8.85271C40.6604 8.94467 40.9869 9.05503 41.2444 9.18377C41.5019 9.30332 41.672 9.40448 41.7548 9.48724L41.0788 10.8667C40.5179 10.3701 39.7868 10.1218 38.8856 10.1218C38.251 10.1218 37.6763 10.2781 37.1613 10.5908C36.6463 10.9034 36.2417 11.3495 35.9474 11.9288C35.6531 12.5082 35.506 13.1795 35.506 13.9428C35.506 14.6417 35.6347 15.2762 35.8922 15.8464C36.1589 16.4165 36.5451 16.8671 37.0509 17.1982C37.5567 17.5293 38.1591 17.6948 38.858 17.6948C39.6672 17.6948 40.4489 17.4649 41.203 17.0051L41.6582 18.3155ZM47.5089 19.1432C46.5893 19.1432 45.7386 18.9317 44.9569 18.5086C44.1845 18.0764 43.5683 17.4649 43.1085 16.674C42.6487 15.8831 42.4188 14.9635 42.4188 13.9152C42.4188 12.8576 42.6487 11.938 43.1085 11.1563C43.5683 10.3655 44.1845 9.75853 44.9569 9.33551C45.7386 8.91249 46.5893 8.70098 47.5089 8.70098C48.4285 8.70098 49.2745 8.91249 50.047 9.33551C50.8287 9.75853 51.4494 10.3655 51.9092 11.1563C52.369 11.938 52.5989 12.8576 52.5989 13.9152C52.5989 14.9635 52.369 15.8831 51.9092 16.674C51.4494 17.4649 50.8287 18.0764 50.047 18.5086C49.2745 18.9317 48.4285 19.1432 47.5089 19.1432ZM47.5089 17.75C48.1434 17.75 48.7228 17.6028 49.2469 17.3085C49.7711 17.0051 50.1849 16.5683 50.4884 15.9981C50.8011 15.4187 50.9574 14.729 50.9574 13.929C50.9574 13.1197 50.8011 12.43 50.4884 11.8598C50.1849 11.2805 49.7711 10.8437 49.2469 10.5494C48.732 10.2551 48.1526 10.108 47.5089 10.108C46.8651 10.108 46.2812 10.2551 45.757 10.5494C45.2328 10.8437 44.819 11.2805 44.5155 11.8598C44.2121 12.43 44.0603 13.1197 44.0603 13.929C44.0603 14.729 44.2167 15.4187 44.5293 15.9981C44.842 16.5683 45.2604 17.0051 45.7846 17.3085C46.318 17.6028 46.8927 17.75 47.5089 17.75ZM56.6686 14.4669L55.841 15.4877V19.0052H54.3236V8.86651H55.841V13.391L59.3171 8.86651H61.1655L57.6756 13.322L61.6621 19.0052H59.7723L56.6686 14.4669ZM65.9086 8.86651H68.4881C69.9411 8.86651 70.9067 9.1102 71.3849 9.5976C71.8631 10.085 72.1022 10.6735 72.1022 11.3633C72.1022 11.8231 72.001 12.2599 71.7987 12.6737C71.5964 13.0783 71.2745 13.3818 70.8331 13.5841C71.486 13.7496 71.9642 14.0393 72.2677 14.4532C72.5804 14.867 72.7367 15.3544 72.7367 15.9153C72.7367 16.5039 72.6447 17.0189 72.4608 17.4603C72.2769 17.9017 71.8953 18.2695 71.3159 18.5638C70.7366 18.8581 69.8997 19.0052 68.8054 19.0052H65.9086V8.86651ZM68.7364 13.1703C69.3893 13.1703 69.8537 13.014 70.1296 12.7013C70.4055 12.3794 70.5434 11.9748 70.5434 11.4874C70.5434 10.6138 69.9181 10.177 68.6674 10.177H67.4259V13.1703H68.7364ZM69.0123 17.7086C69.8491 17.7086 70.4101 17.543 70.6952 17.212C70.9894 16.8717 71.1366 16.4441 71.1366 15.9291C71.1366 15.4417 70.9711 15.0647 70.64 14.798C70.3089 14.5313 69.8077 14.398 69.1364 14.398H67.4259V17.7086H69.0123ZM74.5296 8.86651H78.9714V10.2183H76.0608V13.0186H78.4058V14.398H76.0608V17.6396H79.4266V19.0052H74.5296V8.86651ZM85.7139 19.1432C84.7115 19.1432 83.8149 18.9133 83.024 18.4535C82.2332 17.9937 81.6124 17.3637 81.1618 16.5637C80.7204 15.7544 80.4997 14.8486 80.4997 13.8462C80.4997 12.8714 80.725 11.9932 81.1756 11.2115C81.6262 10.4298 82.2516 9.81831 83.0516 9.37689C83.8517 8.93548 84.7529 8.71477 85.7553 8.71477C86.2979 8.71477 86.7853 8.76535 87.2175 8.86651C87.6589 8.95847 88.0175 9.06882 88.2934 9.19757C88.5693 9.31712 88.7578 9.42287 88.859 9.51483L88.252 10.8115C87.6819 10.3517 86.8404 10.1218 85.7277 10.1218C84.992 10.1218 84.3529 10.2827 83.8103 10.6046C83.2677 10.9264 82.8539 11.3633 82.5688 11.915C82.2838 12.4668 82.1412 13.0829 82.1412 13.7634C82.1412 14.5359 82.293 15.2256 82.5964 15.8326C82.9091 16.4395 83.3367 16.9131 83.8793 17.2534C84.4311 17.5844 85.0518 17.75 85.7415 17.75C86.1737 17.75 86.5875 17.6994 86.983 17.5982C87.3784 17.4879 87.7141 17.3177 87.99 17.0878V15.1291H85.907V13.7083H89.5211V17.681C89.1901 18.0948 88.6889 18.4443 88.0175 18.7294C87.3554 19.0052 86.5875 19.1432 85.7139 19.1432ZM85.2587 8.12162C84.4862 8.12162 83.8747 7.89172 83.4241 7.43191C82.9735 6.96291 82.7482 6.36516 82.7482 5.63867H84.0724C84.0724 5.98812 84.1644 6.28699 84.3483 6.53529C84.5414 6.78358 84.8449 6.90773 85.2587 6.90773C85.6082 6.90773 85.8932 6.77899 86.1139 6.52149C86.3347 6.264 86.445 5.96973 86.445 5.63867H87.7555C87.7555 6.36516 87.5302 6.96291 87.0795 7.43191C86.6289 7.89172 86.022 8.12162 85.2587 8.12162ZM91.2335 8.86651H95.6753V10.2183H92.7647V13.0186H95.1097V14.398H92.7647V17.6396H96.1305V19.0052H91.2335V8.86651ZM99.19 12.4392L99.2314 13.5427V19.0052H97.6864V8.85271H97.8795L103.839 15.5015L103.783 14.3428V8.86651H105.328V19.0052H105.121L99.19 12.4392ZM107.659 8.86651H109.204V19.0052H107.659V8.86651ZM108.432 7.85953C108.146 7.85953 107.907 7.76757 107.714 7.58365C107.53 7.39053 107.438 7.15603 107.438 6.88014C107.438 6.59506 107.53 6.36056 107.714 6.17664C107.907 5.98352 108.146 5.88696 108.432 5.88696C108.717 5.88696 108.951 5.98352 109.135 6.17664C109.328 6.36056 109.425 6.59506 109.425 6.88014C109.425 7.15603 109.328 7.39053 109.135 7.58365C108.942 7.76757 108.707 7.85953 108.432 7.85953ZM111.534 8.86651H113.093V17.6258H116.004V19.0052H111.534V8.86651ZM117.475 8.86651H121.917V10.2183H119.006V13.0186H121.351V14.398H119.006V17.6396H122.372V19.0052H117.475V8.86651ZM125.431 12.4392L125.473 13.5427V19.0052H123.928V8.85271H124.121L130.08 15.5015L130.025 14.3428V8.86651H131.57V19.0052H131.363L125.431 12.4392ZM133.721 8.86651H135.28V17.6258H138.19V19.0052H133.721V8.86651ZM139.661 8.86651H144.103V10.2183H141.193V13.0186H143.538V14.398H141.193V17.6396H144.558V19.0052H139.661V8.86651ZM151.177 19.0052L149.135 15.1704C148.712 15.1888 148.335 15.198 148.004 15.198H147.618V19.0052H146.114V8.86651H148.418C149.586 8.86651 150.547 9.1102 151.301 9.5976C152.055 10.0758 152.432 10.8575 152.432 11.9426C152.432 12.6231 152.271 13.2117 151.949 13.7083C151.637 14.1957 151.168 14.5727 150.542 14.8394L152.956 19.0052H151.177ZM148.597 13.9428C149.498 13.9428 150.115 13.7496 150.446 13.3634C150.786 12.968 150.956 12.499 150.956 11.9564C150.956 10.7517 150.151 10.1494 148.542 10.1494H147.618V13.9428H148.597Z" fill="white"/>
</svg>
