<svg width="208" height="35" viewBox="0 0 208 35" fill="none" xmlns="http://www.w3.org/2000/svg">
<path d="M0.90625 34V0.484375H16.6094C22.9844 0.484375 26.1719 3.08594 26.1719 8.28906C26.1719 12.1016 24.0938 14.8281 19.9375 16.4688C24.375 17.2969 26.5938 19.8359 26.5938 24.0859C26.5938 30.6953 23.1016 34 16.1172 34H0.90625ZM15.8594 28.6094C18.6094 28.6094 19.9844 27.2031 19.9844 24.3906C19.9844 20.9062 17.9297 19.1641 13.8203 19.1641H11.9453V15.1562C17.1016 14.2969 19.6797 12.1406 19.6797 8.6875C19.6797 6.8125 18.5234 5.875 16.2109 5.875H7.11719V28.6094H15.8594ZM35.0156 23.668C35.0156 27.9518 36.6758 30.0938 39.9961 30.0938C43.3164 30.0938 44.9766 27.9518 44.9766 23.668C44.9766 19.4883 43.3164 17.3984 39.9961 17.3984C36.6758 17.3984 35.0156 19.4883 35.0156 23.668ZM29.8398 23.7461C29.8398 16.8711 33.2253 13.4336 39.9961 13.4336C46.7669 13.4336 50.1523 16.8711 50.1523 23.7461C50.1523 30.6081 46.7669 34.0391 39.9961 34.0391C33.2513 34.0391 29.8659 30.6081 29.8398 23.7461ZM58.2578 23.668C58.2578 27.9518 59.918 30.0938 63.2383 30.0938C66.5586 30.0938 68.2188 27.9518 68.2188 23.668C68.2188 19.4883 66.5586 17.3984 63.2383 17.3984C59.918 17.3984 58.2578 19.4883 58.2578 23.668ZM53.082 23.7461C53.082 16.8711 56.4674 13.4336 63.2383 13.4336C70.0091 13.4336 73.3945 16.8711 73.3945 23.7461C73.3945 30.6081 70.0091 34.0391 63.2383 34.0391C56.4935 34.0391 53.1081 30.6081 53.082 23.7461ZM77.3008 34V6.07031H82.4766V15.0938C84.599 14.026 86.832 13.4922 89.1758 13.4922C94.4102 13.4922 97.0273 15.4648 97.0273 19.4102C97.0273 22.2747 95.2044 24.5143 91.5586 26.1289L97.9258 34H91.5977L86.2461 26.6758V24.2734C89.9831 23.4792 91.8516 22.1771 91.8516 20.3672C91.8516 18.5182 90.6146 17.5938 88.1406 17.5938C86.4089 17.5938 84.5208 18.1406 82.4766 19.2344V34H77.3008ZM110.133 32.5938V26.9688C113.492 28.2188 117.289 28.8438 121.523 28.8438C126.664 28.8438 129.234 27.125 129.234 23.6875C129.234 21.1875 127.656 19.9375 124.5 19.9375H119.25C112.391 19.9375 108.961 16.8125 108.961 10.5625C108.961 3.6875 113.844 0.25 123.609 0.25C127.359 0.25 130.914 0.796875 134.273 1.89062V7.51562C130.914 6.26562 127.359 5.64062 123.609 5.64062C117.984 5.64062 115.172 7.28125 115.172 10.5625C115.172 13.0625 116.531 14.3125 119.25 14.3125H124.5C131.797 14.3125 135.445 17.4375 135.445 23.6875C135.445 30.7188 130.805 34.2344 121.523 34.2344C117.289 34.2344 113.492 33.6875 110.133 32.5938ZM139.352 10.1719H143.18L143.961 13.4922H149.117V17.5938H144.527V27.0273C144.527 28.9414 145.354 29.8984 147.008 29.8984H149.117V34H144.508C141.07 34 139.352 32.1576 139.352 28.4727V10.1719ZM156.852 23.668C156.852 27.9518 158.512 30.0938 161.832 30.0938C165.152 30.0938 166.812 27.9518 166.812 23.668C166.812 19.4883 165.152 17.3984 161.832 17.3984C158.512 17.3984 156.852 19.4883 156.852 23.668ZM151.676 23.7461C151.676 16.8711 155.061 13.4336 161.832 13.4336C168.603 13.4336 171.988 16.8711 171.988 23.7461C171.988 30.6081 168.603 34.0391 161.832 34.0391C155.087 34.0391 151.702 30.6081 151.676 23.7461ZM175.895 34V13.4922H179.898L180.543 16.1094C182.34 14.3646 184.241 13.4922 186.246 13.4922V17.6719C184.319 17.6719 182.594 18.4727 181.07 20.0742V34H175.895ZM197.828 13.4922C204.052 13.4922 207.164 16.6693 207.164 23.0234C207.164 23.8698 207.105 24.7161 206.988 25.5625H193.375C193.375 28.4531 195.497 29.8984 199.742 29.8984C201.812 29.8984 203.883 29.7031 205.953 29.3125V33.4141C204.143 33.8047 201.943 34 199.352 34C191.917 34 188.199 30.5039 188.199 23.5117C188.199 16.832 191.409 13.4922 197.828 13.4922ZM193.375 21.9688H202.125V21.8125C202.125 18.974 200.693 17.5547 197.828 17.5547C195.094 17.5547 193.609 19.026 193.375 21.9688Z" fill="#170028"/>
</svg>
