<svg width="35" height="35" viewBox="0 0 35 35" fill="none" xmlns="http://www.w3.org/2000/svg">
<path fill-rule="evenodd" clip-rule="evenodd" d="M4.35536 1.65042C0.434152 4.02902 -0.24158 6.7091 0.0648281 18.6679C0.318125 28.5724 0.461933 29.3817 2.32489 31.3516C5.1463 34.3348 9.65744 35.2726 19.5744 34.9345C33.6079 34.4567 35.4014 32.2154 34.9365 15.7392L34.9365 10.6641L34.186 5.36418L31.3372 1.74099L28.5485 0.118596L17.7107 0.121846C8.13953 -0.28702 6.48305 0.360762 4.35536 1.65042ZM29.7872 5.36418C31.6943 7.26007 31.7932 7.8403 31.7932 17.1019C31.7932 26.2279 31.6682 26.9893 29.8224 29.125C27.9561 31.2833 27.4307 31.4207 19.9626 31.6888C10.5791 32.0261 6.92428 31.4572 4.78351 29.3281C3.38139 27.9336 3.19509 26.5684 3.19509 17.7001C3.19509 8.76508 3.38302 7.41447 4.88892 5.51046C6.56231 3.39353 6.70367 3.36915 17.182 3.36915C27.3466 3.36915 27.8646 3.45123 29.7872 5.36418ZM25.4942 6.70829C24.1992 7.99632 25.1127 9.87027 27.0353 9.87027C28.216 9.87027 28.5698 9.40544 28.3777 8.10522C28.0697 6.02811 26.7975 5.41213 25.4942 6.70829ZM13.1971 9.27785C7.1784 12.7462 7.00272 21.8193 12.8956 24.8505C19.4494 28.2205 26.0736 24.2085 26.0736 16.8679C26.0736 10.8844 18.33 6.31985 13.1971 9.27785ZM21.171 13.1208C23.1688 15.1077 23.3134 19.3416 21.4529 21.3862C19.3841 23.66 15.1123 23.3268 13.0598 20.7312C10.8357 17.9195 10.9215 15.9269 13.3719 13.4906C15.8011 11.0746 18.9624 10.9243 21.171 13.1208Z" fill="white"/>
</svg>
